<?xml version="1.0" encoding="UTF-8"?><!DOCTYPE svg PUBLIC "-//W3C//DTD SVG 1.1//EN" "http://www.w3.org/Graphics/SVG/1.1/DTD/svg11.dtd"><svg xmlns="http://www.w3.org/2000/svg"><symbol id="icon-checked" viewBox="0 0 26 26">
    <path d="M.3 14c-.2-.2-.3-.5-.3-.7s.1-.5.3-.7l1.4-1.4c.4-.4 1-.4 1.4 0l.1.1 5.5 5.9c.2.2.5.2.7 0L22.8 3.3h.1c.4-.4 1-.4 1.4 0l1.4 1.4c.4.4.4 1 0 1.4l-16 16.6c-.2.2-.4.3-.7.3-.3 0-.5-.1-.7-.3L.5 14.3.3 14z"/>
</symbol><symbol id="icon-close" viewBox="0 0 47.971 47.971">
    <path d="M28.228 23.986L47.092 5.122a2.998 2.998 0 0 0 0-4.242 2.998 2.998 0 0 0-4.242 0L23.986 19.744 5.121.88a2.998 2.998 0 0 0-4.242 0 2.998 2.998 0 0 0 0 4.242l18.865 18.864L.879 42.85a2.998 2.998 0 1 0 4.242 4.241l18.865-18.864L42.85 47.091c.586.586 1.354.879 2.121.879s1.535-.293 2.121-.879a2.998 2.998 0 0 0 0-4.242L28.228 23.986z"/>
</symbol><symbol id="icon-comment" viewBox="-21 -47 682.66669 682">
    <path d="M552.012-1.332H87.988C39.473-1.332 0 38.133 0 86.656V370.63c0 48.414 39.3 87.816 87.676 87.988V587.48l185.191-128.863h279.145c48.515 0 87.988-39.472 87.988-87.988V86.656c0-48.523-39.473-87.988-87.988-87.988zm50.488 371.96c0 27.837-22.648 50.49-50.488 50.49h-290.91l-135.926 94.585v-94.586H87.988c-27.84 0-50.488-22.652-50.488-50.488V86.656c0-27.843 22.648-50.488 50.488-50.488h464.024c27.84 0 50.488 22.645 50.488 50.488zm0 0"/>
    <path d="M171.293 131.172h297.414v37.5H171.293zm0 0"/>
    <path d="M171.293 211.172h297.414v37.5H171.293zm0 0"/>
    <path d="M171.293 291.172h297.414v37.5H171.293zm0 0"/>
</symbol><symbol id="icon-down-arrow" viewBox="0 0 129 129">
    <path d="M121.3 34.6c-1.6-1.6-4.2-1.6-5.8 0l-51 51.1-51.1-51.1c-1.6-1.6-4.2-1.6-5.8 0-1.6 1.6-1.6 4.2 0 5.8l53.9 53.9c.8.8 1.8 1.2 2.9 1.2 1 0 2.1-.4 2.9-1.2l53.9-53.9c1.7-1.6 1.7-4.2.1-5.8z"/>
</symbol><symbol id="icon-email" viewBox="0 0 512 512">
    <path d="M467 61H45C20.218 61 0 81.196 0 106v300c0 24.72 20.128 45 45 45h422c24.72 0 45-20.128 45-45V106c0-24.72-20.128-45-45-45zm-6.214 30L256.954 294.833 51.359 91h409.427zM30 399.788V112.069l144.479 143.24L30 399.788zM51.213 421l144.57-144.57 50.657 50.222c5.864 5.814 15.327 5.795 21.167-.046L317 277.213 460.787 421H51.213zM482 399.787L338.213 256 482 112.212v287.575z"/>
</symbol><symbol id="icon-facebook-logo" viewBox="0 0 96.124 96.123">
    <path d="M72.089.02L59.624 0C45.62 0 36.57 9.285 36.57 23.656v10.907H24.037a1.96 1.96 0 0 0-1.96 1.961v15.803a1.96 1.96 0 0 0 1.96 1.96H36.57v39.876a1.96 1.96 0 0 0 1.96 1.96h16.352a1.96 1.96 0 0 0 1.96-1.96V54.287h14.654a1.96 1.96 0 0 0 1.96-1.96l.006-15.803a1.963 1.963 0 0 0-1.961-1.961H56.842v-9.246c0-4.444 1.059-6.7 6.848-6.7l8.397-.003a1.96 1.96 0 0 0 1.959-1.96V1.98A1.96 1.96 0 0 0 72.089.02z"/>
</symbol><symbol id="icon-favorite" viewBox="0 0 455 455">
    <path d="M326.632 10.346c-38.733 0-74.991 17.537-99.132 46.92-24.141-29.384-60.398-46.92-99.132-46.92C57.586 10.346 0 67.931 0 138.714 0 194.14 33.05 258.249 98.23 329.26c50.161 54.647 104.728 96.959 120.257 108.626l9.01 6.769 9.01-6.768c15.529-11.667 70.098-53.978 120.26-108.625C421.949 258.251 455 194.141 455 138.714c0-70.783-57.586-128.368-128.368-128.368zm8.034 298.628c-41.259 44.948-85.648 81.283-107.169 98.029-21.52-16.746-65.907-53.082-107.166-98.03C61.236 244.592 30 185.717 30 138.714c0-54.24 44.128-98.368 98.368-98.368 35.694 0 68.652 19.454 86.013 50.771l13.119 23.666 13.119-23.666c17.36-31.316 50.318-50.771 86.013-50.771 54.24 0 98.368 44.127 98.368 98.368 0 47.005-31.237 105.88-90.334 170.26z"/>
</symbol><symbol id="icon-google-plus" viewBox="0 0 512 512">
    <path d="M448 224v-64h-32v64h-64v32h64v64h32v-64h64v-32z"/>
    <path d="M160 224v64h90.528c-13.216 37.248-48.8 64-90.528 64-52.928 0-96-43.072-96-96s43.072-96 96-96c22.944 0 45.024 8.224 62.176 23.168l42.048-48.256C235.424 109.824 198.432 96 160 96 71.776 96 0 167.776 0 256s71.776 160 160 160 160-71.776 160-160v-32H160z"/>
</symbol><symbol id="icon-information" viewBox="0 0 330 330">
    <path d="M165 0C74.019 0 0 74.02 0 165.001 0 255.982 74.019 330 165 330s165-74.018 165-164.999S255.981 0 165 0zm0 300c-74.44 0-135-60.56-135-134.999S90.56 30 165 30s135 60.562 135 135.001C300 239.44 239.439 300 165 300z"/>
    <path d="M164.998 70c-11.026 0-19.996 8.976-19.996 20.009 0 11.023 8.97 19.991 19.996 19.991 11.026 0 19.996-8.968 19.996-19.991 0-11.033-8.97-20.009-19.996-20.009z"/>
    <path d="M165 140c-8.284 0-15 6.716-15 15v90c0 8.284 6.716 15 15 15 8.284 0 15-6.716 15-15v-90c0-8.284-6.716-15-15-15z"/>
</symbol><symbol id="icon-location" viewBox="0 0 430.114 430.114">
    <path d="M356.208 107.051c-1.531-5.738-4.64-11.852-6.94-17.205C321.746 23.704 261.611 0 213.055 0 148.054 0 76.463 43.586 66.905 133.427v18.355c0 .766.264 7.647.639 11.089 5.358 42.816 39.143 88.32 64.375 131.136 27.146 45.873 55.314 90.999 83.221 136.106 17.208-29.436 34.354-59.259 51.17-87.933 4.583-8.415 9.903-16.825 14.491-24.857 3.058-5.348 8.9-10.696 11.569-15.672 27.145-49.699 70.838-99.782 70.838-149.104v-20.262c.001-5.347-6.627-24.081-7-25.234zm-141.963 92.142c-19.107 0-40.021-9.554-50.344-35.939-1.538-4.2-1.414-12.617-1.414-13.388v-11.852c0-33.636 28.56-48.932 53.406-48.932 30.588 0 54.245 24.472 54.245 55.06 0 30.587-25.305 55.051-55.893 55.051z"/>
</symbol><symbol id="icon-locked" viewBox="0 0 58 58">
    <path d="M29 30c-2.206 0-4 1.794-4 4v6c0 2.206 1.794 4 4 4s4-1.794 4-4v-6c0-2.206-1.794-4-4-4zm2 10c0 1.103-.897 2-2 2s-2-.897-2-2v-6c0-1.103.897-2 2-2s2 .897 2 2v6z"/>
    <path d="M40 21.314V10.22C40 4.585 35.065 0 29 0S18 4.585 18 10.22v11.094C12.584 24.896 9 31.034 9 38c0 11.028 8.972 20 20 20s20-8.972 20-20c0-6.966-3.584-13.104-9-16.686zm-20-1.157V10.22C20 5.688 24.037 2 29 2s9 3.688 9 8.22v9.938c-.188-.095-.38-.179-.57-.268a20.175 20.175 0 0 0-1.985-.804c-.26-.089-.518-.178-.782-.256a20.075 20.075 0 0 0-1.906-.463 19.987 19.987 0 0 0-1.579-.242c-.12-.013-.24-.021-.36-.032C30.213 18.036 29.608 18 29 18s-1.213.036-1.816.092c-.12.011-.241.019-.36.032a19.987 19.987 0 0 0-2.161.364c-.445.1-.887.211-1.324.341-.264.078-.523.168-.782.256a20.02 20.02 0 0 0-1.985.804c-.192.089-.384.173-.572.268zM29 56c-9.925 0-18-8.075-18-18 0-6.537 3.515-12.255 8.743-15.408a18.155 18.155 0 0 1 3.404-1.596c.273-.095.547-.186.824-.268a17.758 17.758 0 0 1 1.798-.422 17.811 17.811 0 0 1 1.63-.225C27.928 20.034 28.46 20 29 20a18.044 18.044 0 0 1 2.113.135c.377.044.749.104 1.118.171a18.18 18.18 0 0 1 1.798.422 17.202 17.202 0 0 1 1.355.463c.992.38 1.953.847 2.873 1.401C43.485 25.745 47 31.463 47 38c0 9.925-8.075 18-18 18z"/>
</symbol><symbol id="icon-metro" viewBox="0 0 93.08 93.08">
    <path d="M91.405 67.947h-5.859L67.369 18.558l-20.83 30.125-22.264-29.767L7.534 67.947H1.675L0 74.522h22.242l8.731-24.036 15.83 21.14.095.133.097-.133 15.112-21.14 8.731 24.036H93.08z"/>
</symbol><symbol id="icon-play" viewBox="0 0 314.068 314.068">
    <path d="M293.002 78.53C249.646 3.435 153.618-22.296 78.529 21.068 3.434 64.418-22.298 160.442 21.066 235.534c43.35 75.095 139.375 100.83 214.465 57.47 75.096-43.365 100.84-139.384 57.471-214.474zm-73.168 187.271c-60.067 34.692-136.894 14.106-171.576-45.973C13.568 159.761 34.161 82.935 94.23 48.26c60.071-34.69 136.894-14.106 171.578 45.971 34.685 60.076 14.098 136.886-45.974 171.57zm-6.279-115.149l-82.214-47.949c-7.492-4.374-13.535-.877-13.493 7.789l.421 95.174c.038 8.664 6.155 12.191 13.669 7.851l81.585-47.103c7.506-4.332 7.522-11.388.032-15.762z"/>
</symbol><symbol id="icon-telegram" viewBox="0 0 300 300">
    <path d="M5.299 144.645l69.126 25.8 26.756 86.047c1.712 5.511 8.451 7.548 12.924 3.891l38.532-31.412a11.496 11.496 0 0 1 14.013-.391l69.498 50.457c4.785 3.478 11.564.856 12.764-4.926L299.823 29.22c1.31-6.316-4.896-11.585-10.91-9.259L5.218 129.402c-7.001 2.7-6.94 12.612.081 15.243zm91.57 12.066l135.098-83.207c2.428-1.491 4.926 1.792 2.841 3.726L123.313 180.87a23.112 23.112 0 0 0-7.163 13.829l-3.798 28.146c-.503 3.758-5.782 4.131-6.819.494l-14.607-51.325c-1.673-5.854.765-12.107 5.943-15.303z"/>
</symbol><symbol id="icon-vk" viewBox="0 0 548.358 548.358">
    <path d="M545.451 400.298c-.664-1.431-1.283-2.618-1.858-3.569-9.514-17.135-27.695-38.167-54.532-63.102l-.567-.571-.284-.28-.287-.287h-.288c-12.18-11.611-19.893-19.418-23.123-23.415-5.91-7.614-7.234-15.321-4.004-23.13 2.282-5.9 10.854-18.36 25.696-37.397 7.807-10.089 13.99-18.175 18.556-24.267 32.931-43.78 47.208-71.756 42.828-83.939l-1.701-2.847c-1.143-1.714-4.093-3.282-8.846-4.712-4.764-1.427-10.853-1.663-18.278-.712l-82.224.568c-1.332-.472-3.234-.428-5.712.144l-3.713.859-1.431.715-1.136.859c-.952.568-1.999 1.567-3.142 2.995-1.137 1.423-2.088 3.093-2.848 4.996-8.952 23.031-19.13 44.444-30.553 64.238-7.043 11.803-13.511 22.032-19.418 30.693-5.899 8.658-10.848 15.037-14.842 19.126-4 4.093-7.61 7.372-10.852 9.849-3.237 2.478-5.708 3.525-7.419 3.142-1.715-.383-3.33-.763-4.859-1.143-2.663-1.714-4.805-4.045-6.42-6.995-1.622-2.95-2.714-6.663-3.285-11.136-.568-4.476-.904-8.326-1-11.563-.089-3.233-.048-7.806.145-13.706.198-5.903.287-9.897.287-11.991 0-7.234.141-15.085.424-23.555.288-8.47.521-15.181.716-20.125.194-4.949.284-10.185.284-15.705s-.336-9.849-1-12.991a44.442 44.442 0 0 0-2.99-9.137c-1.335-2.95-3.289-5.232-5.853-6.852-2.569-1.618-5.763-2.902-9.564-3.856-10.089-2.283-22.936-3.518-38.547-3.71-35.401-.38-58.148 1.906-68.236 6.855-3.997 2.091-7.614 4.948-10.848 8.562-3.427 4.189-3.905 6.475-1.431 6.851 11.422 1.711 19.508 5.804 24.267 12.275l1.715 3.429c1.334 2.474 2.666 6.854 3.999 13.134 1.331 6.28 2.19 13.227 2.568 20.837.95 13.897.95 25.793 0 35.689-.953 9.9-1.853 17.607-2.712 23.127-.859 5.52-2.143 9.993-3.855 13.418-1.715 3.426-2.856 5.52-3.428 6.28-.571.76-1.047 1.239-1.425 1.427a21.387 21.387 0 0 1-7.71 1.431c-2.667 0-5.901-1.334-9.707-4-3.805-2.666-7.754-6.328-11.847-10.992-4.093-4.665-8.709-11.184-13.85-19.558-5.137-8.374-10.467-18.271-15.987-29.691l-4.567-8.282c-2.855-5.328-6.755-13.086-11.704-23.267-4.952-10.185-9.329-20.037-13.134-29.554-1.521-3.997-3.806-7.04-6.851-9.134l-1.429-.859c-.95-.76-2.475-1.567-4.567-2.427a30.301 30.301 0 0 0-6.567-1.854l-78.229.568c-7.994 0-13.418 1.811-16.274 5.428l-1.143 1.711c-.571.953-.859 2.475-.859 4.57 0 2.094.571 4.664 1.714 7.707 11.42 26.84 23.839 52.725 37.257 77.659 13.418 24.934 25.078 45.019 34.973 60.237 9.897 15.229 19.985 29.602 30.264 43.112 10.279 13.515 17.083 22.176 20.412 25.981 3.333 3.812 5.951 6.662 7.854 8.565l7.139 6.851c4.568 4.569 11.276 10.041 20.127 16.416 8.853 6.379 18.654 12.659 29.408 18.85 10.756 6.181 23.269 11.225 37.546 15.126 14.275 3.905 28.169 5.472 41.684 4.716h32.834c6.659-.575 11.704-2.669 15.133-6.283l1.136-1.431c.764-1.136 1.479-2.901 2.139-5.276.668-2.379 1-5 1-7.851-.195-8.183.428-15.558 1.852-22.124 1.423-6.564 3.045-11.513 4.859-14.846 1.813-3.33 3.859-6.14 6.136-8.418 2.282-2.283 3.908-3.666 4.862-4.142.948-.479 1.705-.804 2.276-.999 4.568-1.522 9.944-.048 16.136 4.429 6.187 4.473 11.99 9.996 17.418 16.56 5.425 6.57 11.943 13.941 19.555 22.124 7.617 8.186 14.277 14.271 19.985 18.274l5.708 3.426c3.812 2.286 8.761 4.38 14.853 6.283 6.081 1.902 11.409 2.378 15.984 1.427l73.087-1.14c7.229 0 12.854-1.197 16.844-3.572 3.998-2.379 6.373-5 7.139-7.851.764-2.854.805-6.092.145-9.712-.677-3.611-1.344-6.136-2.008-7.563z"/>
</symbol></svg>